# xmcd
#
# Track frame offsets:
#	150
#	9775
#	22032
#	39152
#	58362
#	74482
#	86140
#	101565
#	116805
#	132587
#	146870
#	156492
#
# Disc length: 2285 seconds
#
# Revision: 0
# Processed by: cddbd v1.4PL0 Copyright (c) Steve Scherf et al.
# Submitted via: dBpowerAMP V4.0
#
DISCID=b108eb0c
DTITLE=Homesick James - Blues on the South Side
DYEAR=1900
DGENRE=
TTITLE0=The Woman I´m Lovin´
TTITLE1=She may Be Your Woman
TTITLE2=Goin´ Down Swingin´
TTITLE3=Homesick´s Shuffle
TTITLE4=Johnny Mae
TTITLE5=Gotta Move
TTITLE6=Lonesome Road
TTITLE7=Working With Homesick
TTITLE8=The Cloud Is Crying
TTITLE9=Homesick´s Blues
TTITLE10=Crawlin´
TTITLE11=Stones in My Passway
EXTD=ilovewinona
EXTT0=
EXTT1=
EXTT2=
EXTT3=
EXTT4=
EXTT5=
EXTT6=
EXTT7=
EXTT8=
EXTT9=
EXTT10=
EXTT11=
PLAYORDER=
